<?xml version="1.0" encoding="UTF-8"?>
<!-- Created with Inkscape (http://www.inkscape.org/) -->
<svg width="487.56" height="484.09" version="1.1" viewBox="0 0 487.56 484.09" xmlns="http://www.w3.org/2000/svg" xmlns:cc="http://creativecommons.org/ns#" xmlns:dc="http://purl.org/dc/elements/1.1/" xmlns:rdf="http://www.w3.org/1999/02/22-rdf-syntax-ns#">
 <metadata>
  <rdf:RDF>
   <cc:Work rdf:about="">
    <dc:format>image/svg+xml</dc:format>
    <dc:type rdf:resource="http://purl.org/dc/dcmitype/StillImage"/>
    <dc:title/>
   </cc:Work>
  </rdf:RDF>
 </metadata>
 <path d="m482.68 248.19c1.2439-1.5861 1.2085-1.6214-0.37756-0.37756-1.6658 1.3064-2.1955 2.1276-1.3724 2.1276 0.20765 0 0.99515-0.7875 1.75-1.75z"/>
 <path d="m486.68 244.19c1.2439-1.5861 1.2085-1.6214-0.37756-0.37756-1.6658 1.3064-2.1955 2.1276-1.3724 2.1276 0.20765 0 0.99515-0.7875 1.75-1.75z"/>
 <path d="m247.42 474.17c2.8185-1.2899 25.113-23.215 75.476-74.228 39.312-39.819 87.237-88.253 106.5-107.63 39.149-39.385 41.06-41.824 40.23-51.353-0.26767-3.0733-1.2636-7.1233-2.2131-9s-17.761-19.607-37.36-39.401c-19.598-19.794-52.958-53.542-74.133-74.997-96.779-98.055-104.54-105.75-108.5-107.6-5.1002-2.3843-11.892-2.3865-17-0.0055-3.9548 1.8434-8.8989 6.7455-104.48 103.59-20.085 20.351-53.896 54.551-75.135 76s-39.375 40.485-40.303 42.302c-3.7569 7.3558-3.0617 16.444 1.7574 22.976 1.2591 1.7066 35.089 36.317 75.177 76.911 132.68 134.35 138.77 140.43 142.99 142.39 5.0756 2.3728 11.867 2.3885 17 0.0393z" fill="#fcb714" stroke="#000" stroke-width="23.679"/>
 <path d="m219.09 282.89c-4.0367-13.001-11.907-25.342-22.59-35.421-7.839-7.396-22.642-17.061-23.783-15.528-0.17973 0.24149-1.7743 7.1558-3.5435 15.365l-3.2168 14.926-3.5852-3.2694c-48.105-43.867-69.248-63.877-68.356-64.69 1.6551-1.5099 91.839-29.402 92.601-28.64 0.36214 0.36213-0.92831 7.6875-2.8676 16.279-1.9393 8.5912-3.3666 15.676-3.1718 15.744 6.9672 2.4303 26.283 13.741 33.175 19.426 8.4568 6.9756 21.03 20.689 24.466 26.685 1.2973 2.2636 1.5974 2.1875 3.8469-0.97471 12.275-17.255 27.561-30.663 44.569-39.093 6.5682-3.2556 12.102-5.9748 12.296-6.0428 0.19483-0.0679-1.2325-7.1527-3.1718-15.744-1.9394-8.5911-3.2235-15.923-2.8537-16.293 0.77891-0.77893 90.923 27.131 92.607 28.672 0.89233 0.81692-52.476 51.326-68.304 64.644l-3.6976 3.1113-3.1964-14.833c-1.758-8.1582-3.3615-15.049-3.5632-15.312-0.20177-0.26354-4.0381 1.4776-8.5252 3.8692-15.965 8.5093-32.067 28.563-37.842 47.129-3.6379 22.651-2.3162 36.651-3.7002 79.93l-0.37063 33.564h-33.168c-1.6004-73.949-0.48835-86.769-4.0563-113.5z" stroke-width="1.3841"/>
</svg>
