<?xml version="1.0" encoding="UTF-8" standalone="no"?>
<svg xmlns:rdf="http://www.w3.org/1999/02/22-rdf-syntax-ns#" xmlns="http://www.w3.org/2000/svg" height="250.6" width="1345.3" version="1.1" xmlns:cc="http://creativecommons.org/ns#" xmlns:dc="http://purl.org/dc/elements/1.1/" viewBox="0 0 1345.3226 250.59218">
 <circle style="color-rendering:auto;color:#000000;isolation:auto;mix-blend-mode:normal;shape-rendering:auto;solid-color:#000000;image-rendering:auto;fill:#121d31" cx="125.3" r="125.3" cy="125.3"/>
 <path style="fill:#00a5a5" d="m123.99 212.1-2.7501-2.2474.35468-24.607.35468-24.607 10.587-6.3134 10.587-6.3134 4.5066 2.4587c2.4787 1.3523 4.7056 3.0828 4.9488 3.8455l.44226 1.3869-10.131 5.8863-10.131 5.8863-.34612 21.669-.34612 21.669-2.6646 1.7676-2.6646 1.7676-2.7501-2.2474zm14.053-23.397.35099-17.988 5.0599-2.8637c2.783-1.5751 5.4869-2.873 6.0087-2.8846l.94874-.0208v36.057l-5.3762 2.8475c-2.9569 1.5662-5.8187 2.846-6.3596 2.8441l-.98345-.004.35096-17.988zm-70.787-8.9718c-2.2521-1.5222-4.1021-3.0849-4.1112-3.4729-.009-.38792 6.5712-4.5149 14.623-9.1711 8.0503-4.6652 15.133-8.4703 15.738-8.4703.60523 0 3.1253 1.1948 5.6001 2.655 2.4749 1.4602 4.4945 3.0256 4.4882 3.4787-.006.45308-6.8488 4.6662-15.205 9.3624-8.3567 4.6962-15.609 8.5032-16.117 8.46-.50765-.0433-2.7656-1.3241-5.0176-2.8462zm-14.564-8.5614-2.2137-1.2852v-6.8556l2.8462-1.8096c1.5654-.99529 8.254-4.904 14.864-8.686 6.6095-3.782 13.789-7.8896 15.955-9.128 2.1658-1.2385 5.0664-2.9565 6.4457-3.8178l2.5078-1.5661 12.857 7.2799c7.0716 4.0039 13.146 7.747 13.499 8.318l.64162 1.0382-2.4258 1.6991-2.4258 1.6991-.44155 2.6972-.44224 2.6919-9.4874-5.5558c-5.218-3.0545-10.273-5.5631-11.232-5.5747-.95981-.0113-9.7413 4.5327-19.514 10.099-9.7731 5.5659-18.095 10.103-18.495 10.081-.39889-.0212-1.7215-.61867-2.939-1.3278zm123.64-10.68c-11.132-6.5386-26.917-15.646-35.077-20.238-8.1608-4.5923-15.137-8.8347-15.504-9.4276l-.66624-1.078 4.2684-2.638c2.3476-1.4509 4.9875-2.638 5.8665-2.638.87892 0 6.7888 2.942 13.133 6.538 6.3442 3.5959 18.366 10.497 26.714 15.338 8.3489 4.8397 18.168 10.557 21.82 12.704l6.6412 3.9044v6.9664l-2.4468 1.3095c-1.3457.72021-2.9112 1.2733-3.4787 1.229-.56754-.0442-10.14-5.4303-21.272-11.969zm24.035-6.1838c-1.3864-.91078-20.594-12.032-42.686-24.722-22.093-12.687-40.166-23.29-40.166-23.561 0-.27127 2.2793-1.9321 5.065-3.6906l5.065-3.1974 8.5336 4.9046c4.6934 2.6976 17.926 10.322 29.405 16.944 11.48 6.6216 24.71 14.243 29.399 16.936l8.5269 4.8961.0114 6.6412c.006 3.6527-.1306 6.6113-.30453 6.5748-.17394-.0365-1.4547-.81148-2.8462-1.7222zm-77.223-4.4122c-.66083-.61731-8.8862-5.5356-18.278-10.909-9.3922-5.3716-19.354-11.102-22.137-12.732-2.783-1.6303-10.298-5.9029-16.7-9.4944-6.4018-3.5915-12.806-7.6172-14.231-8.9449l-2.5917-2.4136v-8.607l1.2934-.79946 1.2934-.79947 5.3477 3.0562c2.9412 1.6811 12.895 7.407 22.119 12.725 9.2241 5.3172 24.025 13.855 32.89 18.973 8.8651 5.1179 17.965 10.391 20.221 11.719 2.2567 1.3275 4.1024 2.6982 4.1015 3.0461-.00097.34787-2.2448 1.9133-4.9864 3.4787-2.7415 1.5654-5.4695 2.8462-6.0622 2.8462-.59268 0-1.6184-.5126-2.2794-1.1391zm-17.013-29.99c-6.6093-3.8901-19.133-11.106-27.83-16.035-8.697-4.9294-18.801-10.866-22.454-13.193l-6.6406-4.2301v-3.717l2.53-2.53c1.3915-1.3915 2.9659-2.53 3.4987-2.53.53285 0 4.9444 2.3338 9.8036 5.1864 4.8591 2.8526 16.804 9.7786 26.544 15.391 9.7404 5.6127 22.121 12.705 27.514 15.761 5.392 3.056 9.8036 5.7999 9.8036 6.0976 0 .29772-2.2656 1.9716-5.0348 3.7196-2.7691 1.7481-5.1884 3.1722-5.3762 3.1647-.18777-.008-5.7492-3.1962-12.358-7.0858zm41.112-15.079c-6.2616-3.733-11.954-7.0653-12.65-7.4051l-1.265-.61783 2.2137-1.8001 2.2137-1.8001v-5.4136h1.7373c.9555 0 6.0956 2.6196 11.422 5.8212l9.6852 5.8212 17.988-10.456c9.8936-5.7509 18.392-10.666 18.886-10.924.4935-.25735 2.0589.25753 3.4787 1.1442l2.5814 1.6121v6.7313l-4.7437 2.8275c-2.609 1.5551-12.016 7.0191-20.906 12.142-8.889 5.1232-16.859 9.2674-17.71 9.2095-.85142-.058-6.6712-3.1596-12.933-6.8926zm-42.514-5.4161c-1.8145-1.1668-3.3122-2.6909-3.3284-3.3861l-.0304-1.265 9.6534-5.816 9.6534-5.816.34812-21.29.34711-21.289 1.3884-1.6729 1.3884-1.6727h5.5092l1.518 1.518 1.518 1.518v49.494l-10.268 5.9916-10.268 5.9916-2.0662-.0925c-1.1354-.0516-3.55-1.0474-5.3635-2.2142zm49.787-10.022c-2.2567-1.1253-4.1087-2.4864-4.1087-3.0258 0-.53882 4.127-3.3528 9.1711-6.2534s11.846-6.9512 15.116-9.0015l5.9447-3.7278 5.7778 3.386 5.7778 3.386-7.295 4.4014c-4.0123 2.4208-10.766 6.3458-15.007 8.7221-4.2413 2.3764-8.5106 4.2843-9.4874 4.2398-.97674-.0445-3.6259-1.0016-5.8871-2.127zm-50.632-21.857.35116-17.74 5.3767-3.2036 5.3757-3.2039v36.579l-4.4993 2.6554c-2.4753 1.4593-5.0528 2.6544-5.7278 2.6544h-1.2274l.35096-17.74z"/>
 <path style="fill:#121d31" d="m854.92 175.17c-34.802-4.7548-55.642-30.258-50.7-62.043 4.6793-30.099 31.133-48.819 66.332-46.94 17.375.92725 33.312 7.5317 43.496 18.026 4.4182 4.5527 8.9092 11.423 7.9929 12.227-.21408.1879-2.6064 1.4592-5.3162 2.8252l-4.927 2.4836-3.7754-5.3561c-9.6032-13.624-29.246-20.945-49.544-18.465-22.333 2.729-37.523 16.036-40.68 35.637-3.9984 24.828 10.132 44.404 35.921 49.765 9.4099 1.9559 26.713.74816 35.11-2.4506 7.7169-2.9398 17.935-11.448 20.139-16.77l1.4621-3.5299 5.8635 2.4367 5.8634 2.4368-2.4402 4.7832c-9.2926 18.215-36.724 28.772-64.797 24.936zm-534.94-52.49c-10.8-27.638-19.91-50.953-20.24-51.813-.46388-1.2032 1.1185-1.4807 6.8554-1.2023l7.4585.3619 16.44 42.287c9.0419 23.258 16.71 42.548 17.041 42.866.33062.31841 8.5416-18.711 18.247-42.287l17.646-42.866 6.5581-.3563 6.5581-.3563 4.1718 9.975c2.2945 5.4862 10.281 24.719 17.747 42.739 7.4663 18.02 13.907 32.764 14.313 32.764.40594 0 8.2733-19.207 17.483-42.683l16.745-42.683h7.1356c6.2218 0 7.0591.26944 6.5382 2.1041-.32857 1.1572-8.2832 21.582-17.677 45.388s-18.163 46.148-19.487 49.649l-2.4077 6.3648-7.9333-.35311-7.9333-.3531-17.51-41.666c-9.6306-22.916-17.762-41.42-18.071-41.121-.3082.29997-8.2448 19.05-17.637 41.666l-17.076 41.121-7.6618.34979-7.6618.3498-19.639-50.247zm180.25-1.5521v-51.7h12.023v103.4h-12.023v-51.7zm40.879 0v-51.7h13.226v90.176h87.77v13.226h-101v-51.7zm115.42.0125v-51.907l40.579.49125c33.522.40584 41.833.84733 47.793 2.5386 23.515 6.6737 35.967 20.275 37.535 40.999 1.7158 22.687-8.162 42.09-26.015 51.1-14.589 7.3627-16.451 7.6168-59.914 8.1738l-39.978.51237v-51.907zm82.961 36.284c19.141-6.2335 28.175-16.886 29.695-35.018 1.7407-20.763-10.435-35.613-33.145-40.427-5.5757-1.1818-16.739-1.6962-37.129-1.7108l-29.157-.0209v80.818l30.96-.54872c27.335-.48443 31.875-.84671 38.775-3.0938zm192.55 14.441c.23208-.59923 12.866-23.883 28.076-51.743l27.654-50.653 8.508-.0212 8.508-.0212 28.464 50.94c15.655 28.017 28.464 51.282 28.464 51.7 0 .41839-3.199.76072-7.109.76072h-7.109l-7.3705-13.226-7.3705-13.226h-72.802l-7.1528 12.925-7.1528 12.925-7.0143.3642c-3.8582.20032-6.8244-.126-6.5923-.72528zm94.454-37.895c-.5356-1.3957-29.552-52.68-30.217-53.406-.1897-.20718-26.535 46.632-30.424 54.089-.25859.49596 13.416.90174 30.389.90174 25.04 0 30.745-.29877 30.251-1.5844zm52.051-12.844v-51.7h44.869c37.415 0 45.933.31597 51.274 1.9019 13.921 4.1341 21.379 12.635 22.565 25.722 1.7018 18.768-9.4158 31.295-31.176 35.128l-7.242 1.2756 16.104 16.38c8.8569 9.0091 17.397 17.868 18.979 19.687l2.8749 3.3064-8.9265-.11879-8.9266-.11879-18.474-19.72-18.474-19.72h-50.22v39.677h-13.226v-51.7zm89.778-1.3791c14.648-3.6883 20.76-20.239 11.527-31.212-6.1851-7.3506-7.8268-7.6158-49.905-8.0622l-38.174-.40496v41.058h35.538c22.744 0 37.509-.49649 41.014-1.3791zm50.895 1.3916v-51.908l40.579.49126c33.522.40583 41.833.84732 47.793 2.5386 23.515 6.6737 35.967 20.275 37.535 40.999 1.7159 22.687-8.1619 42.09-26.015 51.1-14.589 7.3627-16.451 7.6167-59.914 8.1738l-39.978.51237v-51.907zm82.961 36.284c19.141-6.2335 28.175-16.886 29.695-35.018 1.7406-20.763-10.435-35.613-33.144-40.427-5.5757-1.1818-16.739-1.6962-37.129-1.7108l-29.157-.0209v80.818l30.96-.54872c27.335-.48443 31.875-.84671 38.775-3.0938z"/>
</svg>
