<?xml version="1.0" encoding="UTF-8" standalone="no"?>
<svg xmlns:rdf="http://www.w3.org/1999/02/22-rdf-syntax-ns#" xmlns="http://www.w3.org/2000/svg" height="250.6" width="250.6" version="1.1" xmlns:cc="http://creativecommons.org/ns#" xmlns:dc="http://purl.org/dc/elements/1.1/" viewBox="0 0 250.6 250.58797">
 <circle style="color-rendering:auto;color:#000000;isolation:auto;mix-blend-mode:normal;shape-rendering:auto;solid-color:#000000;image-rendering:auto;fill:#121d31" cx="125.3" r="125.3" cy="125.29"/>
 <path style="fill:#00a5a5" d="m123.99 212.09-2.7501-2.2474.35468-24.607.35468-24.607 10.587-6.3134 10.587-6.3134 4.5066 2.4587c2.4787 1.3523 4.7056 3.0828 4.9488 3.8455l.44226 1.3869-10.131 5.8863-10.131 5.8863-.34612 21.669-.34612 21.669-2.6646 1.7676-2.6646 1.7676-2.7501-2.2474zm14.053-23.397.35099-17.988 5.0599-2.8637c2.783-1.5751 5.4869-2.873 6.0087-2.8846l.94874-.0208v36.057l-5.3762 2.8475c-2.9569 1.5662-5.8187 2.846-6.3596 2.8441l-.98345-.004.35096-17.988zm-70.787-8.9718c-2.2521-1.5222-4.1021-3.0849-4.1112-3.4729-.009-.38792 6.5712-4.5149 14.623-9.1711 8.0503-4.6652 15.133-8.4703 15.738-8.4703.60523 0 3.1253 1.1948 5.6001 2.655 2.4749 1.4602 4.4945 3.0256 4.4882 3.4787-.006.45308-6.8488 4.6662-15.205 9.3624-8.3567 4.6962-15.609 8.5032-16.117 8.46-.50765-.0433-2.7656-1.3241-5.0176-2.8462zm-14.564-8.5614-2.2137-1.2852v-6.8556l2.8462-1.8096c1.5654-.99529 8.254-4.904 14.864-8.686 6.6095-3.782 13.789-7.8896 15.955-9.128 2.1658-1.2385 5.0664-2.9565 6.4457-3.8178l2.5078-1.5661 12.857 7.2799c7.0716 4.0039 13.146 7.747 13.499 8.318l.64162 1.0382-2.4258 1.6991-2.4258 1.6991-.44155 2.6972-.44224 2.6919-9.4874-5.5558c-5.218-3.0545-10.273-5.5631-11.232-5.5747-.95981-.0113-9.7413 4.5327-19.514 10.099-9.7731 5.5659-18.095 10.103-18.495 10.081-.39889-.0212-1.7215-.61867-2.939-1.3278zm123.64-10.68c-11.132-6.5386-26.917-15.646-35.077-20.238-8.1608-4.5923-15.137-8.8347-15.504-9.4276l-.66624-1.078 4.2684-2.638c2.3476-1.4509 4.9875-2.638 5.8665-2.638.87892 0 6.7888 2.942 13.133 6.538 6.3442 3.5959 18.366 10.497 26.714 15.338 8.3489 4.8397 18.168 10.557 21.82 12.704l6.6412 3.9044v6.9664l-2.4468 1.3095c-1.3457.72021-2.9112 1.2733-3.4787 1.229-.56754-.0442-10.14-5.4303-21.272-11.969zm24.035-6.1838c-1.3864-.91078-20.594-12.032-42.686-24.722-22.093-12.687-40.166-23.29-40.166-23.561 0-.27127 2.2793-1.9321 5.065-3.6906l5.065-3.1974 8.5336 4.9046c4.6934 2.6976 17.926 10.322 29.405 16.944 11.48 6.6216 24.71 14.243 29.399 16.936l8.5269 4.8961.0114 6.6412c.006 3.6527-.1306 6.6113-.30453 6.5748-.17394-.0365-1.4547-.81148-2.8462-1.7222zm-77.223-4.4122c-.66083-.61731-8.8862-5.5356-18.278-10.909-9.3922-5.3716-19.354-11.102-22.137-12.732-2.783-1.6303-10.298-5.9029-16.7-9.4944-6.4018-3.5915-12.806-7.6172-14.231-8.9449l-2.5917-2.4136v-8.607l1.2934-.79946 1.2934-.79947 5.3477 3.0562c2.9412 1.6811 12.895 7.407 22.119 12.725 9.2241 5.3172 24.025 13.855 32.89 18.973 8.8651 5.1179 17.965 10.391 20.221 11.719 2.2567 1.3275 4.1024 2.6982 4.1015 3.0461-.00097.34787-2.2448 1.9133-4.9864 3.4787-2.7415 1.5654-5.4695 2.8462-6.0622 2.8462-.59268 0-1.6184-.5126-2.2794-1.1391zm-17.013-29.99c-6.6093-3.8901-19.133-11.106-27.83-16.035-8.697-4.9294-18.801-10.866-22.454-13.193l-6.6406-4.2301v-3.717l2.53-2.53c1.3915-1.3915 2.9659-2.53 3.4987-2.53.53285 0 4.9444 2.3338 9.8036 5.1864 4.8591 2.8526 16.804 9.7786 26.544 15.391 9.7404 5.6127 22.121 12.705 27.514 15.761 5.392 3.056 9.8036 5.7999 9.8036 6.0976 0 .29772-2.2656 1.9716-5.0348 3.7196-2.7691 1.7481-5.1884 3.1722-5.3762 3.1647-.18777-.008-5.7492-3.1962-12.358-7.0858zm41.112-15.079c-6.2616-3.733-11.954-7.0653-12.65-7.4051l-1.265-.61783 2.2137-1.8001 2.2137-1.8001v-5.4136h1.7373c.9555 0 6.0956 2.6196 11.422 5.8212l9.6852 5.8212 17.988-10.456c9.8936-5.7509 18.392-10.666 18.886-10.924.4935-.25735 2.0589.25753 3.4787 1.1442l2.5814 1.6121v6.7313l-4.7437 2.8275c-2.609 1.5551-12.016 7.0191-20.906 12.142-8.889 5.1232-16.859 9.2674-17.71 9.2095-.85142-.058-6.6712-3.1596-12.933-6.8926zm-42.514-5.4161c-1.8145-1.1668-3.3122-2.6909-3.3284-3.3861l-.0304-1.265 9.6534-5.816 9.6534-5.816.34812-21.29.34711-21.289 1.3884-1.6729 1.3884-1.6727h5.5092l1.518 1.518 1.518 1.518v49.494l-10.268 5.9916-10.268 5.9916-2.0662-.0925c-1.1354-.0516-3.55-1.0474-5.3635-2.2142zm49.787-10.022c-2.2567-1.1253-4.1087-2.4864-4.1087-3.0258 0-.53882 4.127-3.3528 9.1711-6.2534s11.846-6.9512 15.116-9.0015l5.9447-3.7278 5.7778 3.386 5.7778 3.386-7.295 4.4014c-4.0123 2.4208-10.766 6.3458-15.007 8.7221-4.2413 2.3764-8.5106 4.2843-9.4874 4.2398-.97674-.0445-3.6259-1.0016-5.8871-2.127zm-50.632-21.857.35116-17.74 5.3767-3.2036 5.3757-3.2039v36.579l-4.4993 2.6554c-2.4753 1.4593-5.0528 2.6544-5.7278 2.6544h-1.2274l.35096-17.74z"/>
</svg>
