<?xml version="1.0" encoding="UTF-8"?>
<svg width="121.83mm" height="20.583mm" version="1.1" viewBox="0 0 121.83 20.583" xmlns="http://www.w3.org/2000/svg" xmlns:cc="http://creativecommons.org/ns#" xmlns:dc="http://purl.org/dc/elements/1.1/" xmlns:rdf="http://www.w3.org/1999/02/22-rdf-syntax-ns#">
 <metadata>
  <rdf:RDF>
   <cc:Work rdf:about="">
    <dc:format>image/svg+xml</dc:format>
    <dc:type rdf:resource="http://purl.org/dc/dcmitype/StillImage"/>
    <dc:title/>
   </cc:Work>
  </rdf:RDF>
 </metadata>
 <g transform="translate(-34.501,-46.443)" stroke-width=".26458">
  <g transform="translate(0 .086136)" stroke="#31343d">
   <path d="m35.94 47.179 3.7503-0.68345 1.1599 0.68345 13.093 19.628-5.2098-4.07e-4c-0.45939-0.33946-0.38322-0.27644-0.83141-0.62586 0.21637-4.0608-8.6988-14.257-11.962-19.002z" fill="#31343d"/>
   <path d="m35.841 66.807-1.1117-0.58941 7.6585-9.2245-6.5468-9.8142h4.9101l13.093 19.628h-4.9096l-4.6914-6.1336-3.992 6.1336z" fill="#31343d"/>
   <path d="m34.748 66.119 6.5468-9.8139-6.5468-9.8142h4.9101l13.093 19.628h-4.9096l-4.0915-6.1336-4.0923 6.1336z" fill="#fff"/>
  </g>
  <g fill="#31343d" aria-label="Telefunc">
   <path d="m65.748 55.489h3.5712l0.61701-1.7201h-10.583l-0.61701 1.7201h3.5712l-3.8142 10.489h3.4403zm4.5434-1.8884 0.48613 0.76659-0.78528 2.1502h-3.5899l-3.8329 10.508h-3.8703l-0.48613-0.76659h-0.11218l3.5525-9.7412h-2.6924l-0.50482-0.74789h-0.11218l0.84138-2.2811h11.144z"/>
   <path d="m81.136 63.08 1.6827-4.6369-0.48613-0.74789 0.0187-0.07479-1.1405-1.5332h-8.152l-2.2624 1.5332-2.5802 7.1049 0.50482 0.6918 0.07479 0.11218 1.1031 1.4958h8.3016l0.80398-2.1689-0.50482-0.76658 0.05609-0.11218h-5.31l0.31785-0.89747zm-12.583 1.5145 2.4867-6.8432 2.0567-1.3836h7.8902l1.047 1.3836-1.5519 4.2817h-7.5724l-0.82268 2.225h6.0766l-0.61701 1.7201h-7.9463zm4.9735-4.3004h4.1508l0.82268-2.225h-4.1508zm1.4771-1.1779h2.8233l-0.31785 0.89746h-2.8233z"/>
   <path d="m88.372 63.978h-1.608l3.4964-9.6104-0.46743-0.76659 0.03739-0.11218h-3.9825l-4.0947 11.218 0.56092 0.76658 0.05609 0.03739h-0.0187l0.52352 0.74789 0.56092 0.76659h4.5808l0.80398-2.1689-0.50482-0.76658zm-6.2823 0.59831 3.9264-10.807h3.4216l-3.8142 10.489h2.3558l-0.61701 1.7201h-4.2443z"/>
   <path d="m102.81 63.08 1.6827-4.6369-0.48612-0.74789 0.0187-0.07479-1.1405-1.5332h-8.152l-2.2624 1.5332-2.5802 7.1049 0.50482 0.6918 0.07479 0.11218 1.1031 1.4958h8.3016l0.80398-2.1689-0.50483-0.76658 0.0561-0.11218h-5.31l0.31785-0.89747zm-12.583 1.5145 2.4867-6.8432 2.0567-1.3836h7.8902l1.047 1.3836-1.5519 4.2817h-7.5724l-0.82268 2.225h6.0766l-0.61701 1.7201h-7.9463zm4.9735-4.3004h4.1508l0.82268-2.225h-4.1508zm1.4771-1.1779h2.8233l-0.31785 0.89746h-2.8233z"/>
   <path d="m108.12 62.015h5.3848l0.617-1.7201h-5.3848l1.7575-4.8052h6.5066l0.61701-1.7201h-8.3764l-2.0567 1.4023-3.9264 10.807h3.4216zm6.357-1.8884 0.48613 0.76659-0.78528 2.1502h-5.3848l-1.4584 3.9825h-3.8703l-0.48613-0.76659h-0.11218l4.0947-11.218 2.2624-1.5519h8.7877l-0.0374 0.11218 0.48612 0.76659-0.78528 2.1502h-6.5066l-1.2714 3.4964h4.6182z"/>
   <path d="m125.84 56.088-2.8607 7.8902h-2.8046l2.5428-7.0115-0.48613-0.76658 0.0374-0.11218h-3.9825l-3.1411 8.6381 0.50482 0.6918 0.0748 0.11218 1.1031 1.4958h8.1146l2.225-1.4771 3.1224-8.582-0.48612-0.76658 0.0374-0.11218zm-1.4584 9.8908h-7.8528l-1.047-1.3836 2.9916-8.2268h3.4216l-2.8794 7.8902h4.1321l2.8794-7.8902h3.4403l-2.9916 8.2268z"/>
   <path d="m128.72 67.026h3.8703l2.8794-7.9089h2.8233l-2.5989 7.1423h0.11218l0.48613 0.76659h3.8703l3.1411-8.6007-0.50482-0.74789 0.0374-0.07479-1.1779-1.5145h-8.1333l-2.2624 1.5332-3.1411 8.6381h0.11219zm10.246-8.956h-4.1508l-2.8794 7.9089h-3.4216l2.9916-8.2268 2.0567-1.3836h7.8528l1.0844 1.3836-2.9916 8.2268h-3.4216z"/>
   <path d="m155.89 56.088h-8.8251l-2.2624 1.5332-2.5802 7.0862 0.56092 0.76658 0.0561 0.03739h-0.0187l0.54222 0.74789 0.54222 0.76659h8.769l0.80397-2.1689-0.50482-0.76658 0.0561-0.11218h-5.7774l1.7575-4.8613h6.544l0.78529-2.1502-0.48613-0.76658zm-9.7973 8.1707h6.544l-0.61701 1.7201h-8.4137l-1.047-1.4023 2.4867-6.8245 2.0567-1.3836h8.4137l-0.61701 1.7014h-6.544z"/>
  </g>
 </g>
</svg>
