<?xml version="1.0" encoding="UTF-8"?>
<svg width="112.18mm" height="20.583mm" version="1.1" viewBox="0 0 112.18 20.583" xmlns="http://www.w3.org/2000/svg" xmlns:cc="http://creativecommons.org/ns#" xmlns:dc="http://purl.org/dc/elements/1.1/" xmlns:rdf="http://www.w3.org/1999/02/22-rdf-syntax-ns#">
 <metadata>
  <rdf:RDF>
   <cc:Work rdf:about="">
    <dc:format>image/svg+xml</dc:format>
    <dc:type rdf:resource="http://purl.org/dc/dcmitype/StillImage"/>
    <dc:title/>
   </cc:Work>
  </rdf:RDF>
 </metadata>
 <g transform="translate(-34.501,-46.357)" stroke="#31343d" stroke-width=".26458">
  <path d="m35.94 47.179 3.7503-0.68345 1.1599 0.68345 13.093 19.628-5.2098-4.07e-4c-0.45939-0.33946-0.38322-0.27644-0.83141-0.62586 0.21637-4.0608-8.6988-14.257-11.962-19.002z" fill="#31343d"/>
  <path d="m35.841 66.807-1.1117-0.58941 7.6585-9.2245-6.5468-9.8142h4.9101l13.093 19.628h-4.9096l-4.6914-6.1336-3.992 6.1336z" fill="#31343d"/>
  <path d="m34.748 66.119 6.5468-9.8139-6.5468-9.8142h4.9101l13.093 19.628h-4.9096l-4.0915-6.1336-4.0923 6.1336z" fill="#fff"/>
 </g>
 <g fill="#31343d" stroke-width=".26458" aria-label="Telefunc">
  <path d="m30.134 10.126h3.2342l0.55879-1.5578h-9.5841l-0.55879 1.5578h3.2342l-3.4543 9.4994h3.1157zm4.1147-1.7102 0.44026 0.69425-0.71119 1.9473h-3.2511l-3.4713 9.5163h-3.5051l-0.44026-0.69425h-0.1016l3.2173-8.8221h-2.4384l-0.45719-0.67732h-0.1016l0.76198-2.0658h10.092z"/>
  <path d="m44.07 17 1.524-4.1994-0.44026-0.67732 0.01693-0.06773-1.0329-1.3885h-7.3828l-2.0489 1.3885-2.3368 6.4345 0.45719 0.62652 0.06773 0.1016 0.99905 1.3546h7.5183l0.72812-1.9642-0.45719-0.69425 0.0508-0.1016h-4.809l0.28786-0.81278zm-11.396 1.3716 2.2521-6.1975 1.8626-1.253h7.1457l0.94825 1.253-1.4054 3.8777h-6.8579l-0.74505 2.015h5.5032l-0.55879 1.5578h-7.1965zm4.5042-3.8946h3.7591l0.74505-2.015h-3.7591zm1.3377-1.0668h2.5569l-0.28786 0.81278h-2.5569z"/>
  <path d="m50.623 17.813h-1.4562l3.1665-8.7036-0.42332-0.69425 0.03387-0.1016h-3.6067l-3.7083 10.16 0.50799 0.69425 0.0508 0.03387h-0.01693l0.47412 0.67732 0.50799 0.69425h4.1486l0.72811-1.9642-0.45719-0.69425zm-5.6895 0.54186 3.5559-9.7873h3.0987l-3.4543 9.4994h2.1336l-0.55879 1.5578h-3.8438z"/>
  <path d="m63.695 17 1.524-4.1994-0.44026-0.67732 0.01693-0.06773-1.0329-1.3885h-7.3828l-2.0489 1.3885-2.3368 6.4345 0.45719 0.62652 0.06773 0.1016 0.99905 1.3546h7.5183l0.72812-1.9642-0.45719-0.69425 0.0508-0.1016h-4.809l0.28786-0.81278zm-11.396 1.3716 2.2521-6.1975 1.8626-1.253h7.1457l0.94825 1.253-1.4054 3.8777h-6.8579l-0.74505 2.015h5.5032l-0.55879 1.5578h-7.1965zm4.5042-3.8946h3.7591l0.74505-2.015h-3.7591zm1.3377-1.0668h2.5569l-0.28786 0.81278h-2.5569z"/>
  <path d="m68.504 16.035h4.8767l0.55879-1.5578h-4.8767l1.5917-4.3518h5.8927l0.55879-1.5578h-7.586l-1.8626 1.27-3.5559 9.7873h3.0987zm5.7572-1.7102 0.44026 0.69425-0.71119 1.9473h-4.8767l-1.3208 3.6067h-3.5051l-0.44026-0.69425h-0.1016l3.7083-10.16 2.0489-1.4054h7.9585l-0.033866 0.1016 0.44026 0.69425-0.71119 1.9473h-5.8927l-1.1514 3.1665h4.1825z"/>
  <path d="m84.557 10.667-2.5907 7.1457h-2.54l2.3029-6.3499-0.44026-0.69425 0.03387-0.1016h-3.6067l-2.8447 7.823 0.45719 0.62652 0.06773 0.1016 0.99905 1.3546h7.3489l2.015-1.3377 2.8278-7.7722-0.44026-0.69425 0.03387-0.1016zm-1.3208 8.9576h-7.1119l-0.94825-1.253 2.7093-7.4505h3.0987l-2.6077 7.1457h3.7422l2.6077-7.1457h3.1157l-2.7093 7.4505z"/>
  <path d="m87.164 20.573h3.5051l2.6077-7.1627h2.5569l-2.3537 6.4684h0.1016l0.44026 0.69425h3.5051l2.8447-7.7892-0.45719-0.67732 0.03387-0.06773-1.0668-1.3716h-7.3659l-2.0489 1.3885-2.8447 7.823h0.1016zm9.2793-8.1109h-3.7591l-2.6077 7.1627h-3.0987l2.7093-7.4505 1.8626-1.253h7.1119l0.98211 1.253-2.7093 7.4505h-3.0987z"/>
  <path d="m111.77 10.667h-7.9924l-2.0489 1.3885-2.3368 6.4176 0.50799 0.69425 0.0508 0.03387h-0.01693l0.49106 0.67732 0.49105 0.69425h7.9416l0.72812-1.9642-0.45719-0.69425 0.0508-0.1016h-5.2323l1.5917-4.4026h5.9266l0.71119-1.9473-0.44026-0.69425zm-8.8729 7.3997h5.9266l-0.55878 1.5578h-7.6198l-0.94825-1.27 2.2521-6.1805 1.8626-1.253h7.6198l-0.55879 1.5409h-5.9266z"/>
 </g>
</svg>
